<svg width="5" height="15" viewBox="0 0 5 15" fill="none" xmlns="http://www.w3.org/2000/svg">
<g clip-path="url(#clip0_167_5882)">
<path d="M2.5 5.15308C3.53646 5.15308 4.375 6.03355 4.375 7.12183C4.375 8.21011 3.53646 9.09058 2.5 9.09058C1.46354 9.09058 0.625 8.21011 0.625 7.12183C0.625 6.03355 1.46354 5.15308 2.5 5.15308ZM0.625 2.30933C0.625 3.39761 1.46354 4.27808 2.5 4.27808C3.53646 4.27808 4.375 3.39761 4.375 2.30933C4.375 1.22104 3.53646 0.340576 2.5 0.340576C1.46354 0.340576 0.625 1.22104 0.625 2.30933ZM0.625 11.9343C0.625 13.0226 1.46354 13.9031 2.5 13.9031C3.53646 13.9031 4.375 13.0226 4.375 11.9343C4.375 10.846 3.53646 9.96558 2.5 9.96558C1.46354 9.96558 0.625 10.846 0.625 11.9343Z" fill="white"/>
</g>
<defs>
<clipPath id="clip0_167_5882">
<rect width="5" height="14" fill="white" transform="translate(0 0.121826)"/>
</clipPath>
</defs>
</svg>
