<svg width="72" height="72" viewBox="0 0 72 72" fill="none" xmlns="http://www.w3.org/2000/svg">
<g id="1564491_add_create_new_plus_icon 1">
<g id="icons">
<path id="add" d="M36 3C17.7 3 3 17.7 3 36C3 54.3 17.7 69 36 69C54.3 69 69 54.3 69 36C69 17.7 54.3 3 36 3ZM51 42H42V51C42 54.3 39.3 57 36 57C32.7 57 30 54.3 30 51V42H21C17.7 42 15 39.3 15 36C15 32.7 17.7 30 21 30H30V21C30 17.7 32.7 15 36 15C39.3 15 42 17.7 42 21V30H51C54.3 30 57 32.7 57 36C57 39.3 54.3 42 51 42Z" fill="#234A9A"/>
<path id="Subtract" fill-rule="evenodd" clip-rule="evenodd" d="M42 42H51C54.3 42 57 39.3 57 36C57 32.7 54.3 30 51 30H42V21C42 17.7 39.3 15 36 15C32.7 15 30 17.7 30 21V30H21C17.7 30 15 32.7 15 36C15 39.3 17.7 42 21 42H30V51C30 54.3 32.7 57 36 57C39.3 57 42 54.3 42 51V42Z" fill="white"/>
</g>
</g>
</svg>
