<svg width="57" height="57" viewBox="0 0 57 57" fill="none" xmlns="http://www.w3.org/2000/svg">
<path d="M42.0375 1.1875H14.9625C7.3625 1.1875 1.1875 7.3625 1.1875 14.9625V41.8C1.1875 49.4 7.3625 55.575 14.9625 55.575H41.8C49.4 55.575 55.575 49.4 55.575 41.8V14.9625C55.8125 7.3625 49.6375 1.1875 42.0375 1.1875ZM28.5 43.4625C20.1875 43.4625 13.5375 36.8125 13.5375 28.5C13.5375 20.1875 20.1875 13.5375 28.5 13.5375C36.8125 13.5375 43.4625 20.1875 43.4625 28.5C43.4625 36.8125 36.8125 43.4625 28.5 43.4625ZM44.175 14.9625C42.9875 14.9625 42.0375 14.0125 42.0375 12.825C42.0375 11.6375 42.9875 10.6875 44.175 10.6875C45.3625 10.6875 46.3125 11.6375 46.3125 12.825C46.3125 14.0125 45.3625 14.9625 44.175 14.9625Z" fill="white"/>
</svg>
