<svg width="45" height="36" viewBox="0 0 45 36" fill="none" xmlns="http://www.w3.org/2000/svg">
<path d="M40.3918 22.0927C40.211 21.8845 39.9846 21.7109 39.7263 21.5824C39.468 21.4539 39.1831 21.3733 38.8888 21.3452C38.5945 21.3172 38.2969 21.3424 38.0138 21.4193C37.7308 21.4962 37.4682 21.6233 37.2418 21.7927C34.8793 23.4927 32.7418 24.6927 30.6043 25.2927C28.4668 25.9927 25.9918 26.2927 22.9543 26.2927C19.9168 26.2927 17.4418 25.9927 15.3043 25.2927C13.1668 24.5927 11.0293 23.4927 8.6668 21.7927C7.6543 21.0927 6.3043 21.1927 5.5168 22.0927C4.7293 22.9927 4.8418 24.1927 5.8543 24.8927C7.32028 25.9927 8.90267 26.9639 10.5793 27.7927L8.6668 30.6927C8.1043 31.6927 8.4418 32.8927 9.4543 33.3927C10.5793 33.8927 11.9293 33.5927 12.4918 32.6927L14.6293 29.3927C16.6057 29.9108 18.6457 30.213 20.7043 30.2927V33.8927C20.7043 34.4232 20.9413 34.9319 21.3633 35.307C21.7853 35.682 22.3576 35.8927 22.9543 35.8927C23.551 35.8927 24.1233 35.682 24.5453 35.307C24.9672 34.9319 25.2043 34.4232 25.2043 33.8927V30.2927C27.4262 30.1968 29.6222 29.8266 31.7293 29.1927L33.9793 32.6927C34.2777 33.1436 34.7653 33.4707 35.335 33.6019C35.617 33.6669 35.9107 33.6819 36.1993 33.646C36.4879 33.6101 36.7656 33.5241 37.0168 33.3927C37.2679 33.2614 37.4875 33.0874 37.663 32.8807C37.8385 32.6739 37.9665 32.4384 38.0396 32.1877C38.1128 31.937 38.1296 31.6759 38.0892 31.4194C38.0489 31.1629 37.952 30.916 37.8043 30.6927L35.7793 27.5927C37.3067 26.8283 38.7396 25.9234 40.0543 24.8927C41.0668 24.1927 41.1793 22.9927 40.3918 22.0927Z" fill="white"/>
</svg>
