<svg width="34" height="34" viewBox="0 0 34 34" fill="none" xmlns="http://www.w3.org/2000/svg">
<path fill-rule="evenodd" clip-rule="evenodd" d="M26.2084 33.2918H7.79171C6.227 33.2918 4.95837 32.0232 4.95837 30.4585V3.54183C4.95837 1.97712 6.227 0.708496 7.79171 0.708496H21.2309C21.2323 0.708496 21.2345 0.708496 21.2359 0.708496H21.25C21.4767 0.708496 21.6701 0.822538 21.7997 0.988288L28.7619 7.9505C28.9284 8.08012 29.0417 8.2735 29.0417 8.50016V8.51504C29.0417 8.51645 29.0417 8.51716 29.0417 8.51858V30.4585C29.0417 32.0232 27.7731 33.2918 26.2084 33.2918ZM21.9584 3.10337V7.79183H26.6468L21.9584 3.10337ZM27.625 9.2085H21.25C20.8583 9.2085 20.5417 8.89116 20.5417 8.50016V2.12516H7.79171C7.00971 2.12516 6.37504 2.75983 6.37504 3.54183V30.4585C6.37504 31.2405 7.00971 31.8752 7.79171 31.8752H26.2084C26.9904 31.8752 27.625 31.2405 27.625 30.4585V9.2085ZM23.375 27.6252H10.625C10.2333 27.6252 9.91671 27.3085 9.91671 26.9168C9.91671 26.5258 10.2333 26.2085 10.625 26.2085H23.375C23.7668 26.2085 24.0834 26.5258 24.0834 26.9168C24.0834 27.3085 23.7668 27.6252 23.375 27.6252ZM23.375 21.9585H10.625C10.2333 21.9585 9.91671 21.6419 9.91671 21.2502C9.91671 20.8592 10.2333 20.5418 10.625 20.5418H23.375C23.7668 20.5418 24.0834 20.8592 24.0834 21.2502C24.0834 21.6419 23.7668 21.9585 23.375 21.9585ZM23.375 16.2918H10.625C10.2333 16.2918 9.91671 15.9752 9.91671 15.5835C9.91671 15.1925 10.2333 14.8752 10.625 14.8752H23.375C23.7668 14.8752 24.0834 15.1925 24.0834 15.5835C24.0834 15.9752 23.7668 16.2918 23.375 16.2918Z" fill="white"/>
</svg>
