<svg width="32" height="32" viewBox="0 0 32 32" fill="none" xmlns="http://www.w3.org/2000/svg">
<ellipse cx="15.6374" cy="15.8848" rx="9.6375" ry="9.88461" transform="rotate(-50 15.6374 15.8848)" fill="white"/>
<path d="M10.7556 9.55584L9.5556 10.7558C9.24449 11.067 9.24449 11.6003 9.5556 11.9558L13.6445 16.0447L9.5556 20.1336C9.24449 20.4447 9.24449 20.9781 9.5556 21.3336L10.7112 22.4892C11.0223 22.8003 11.5556 22.8003 11.9112 22.4892L16 18.4003L20.0889 22.4892C20.4 22.8003 20.9334 22.8003 21.2889 22.4892L22.4445 21.3336C22.7556 21.0225 22.7556 20.4892 22.4445 20.1336L18.3556 16.0003L22.4445 11.9114C22.7556 11.6003 22.7556 11.067 22.4445 10.7114L21.2889 9.55584C20.9778 9.24473 20.4445 9.24473 20.0889 9.55584L16 13.6447L11.9112 9.55584C11.6 9.24473 11.0667 9.24473 10.7556 9.55584Z" fill="#222A30"/>
</svg>
