<svg width="40" height="40" viewBox="0 0 40 40" fill="none" xmlns="http://www.w3.org/2000/svg">
<path d="M16.4065 20.0009L29.1024 9.42176C29.6091 8.99612 29.9265 8.387 29.9851 7.72781C30.0437 7.06861 29.8387 6.41306 29.415 5.90471C28.9912 5.39636 28.3833 5.07664 27.7244 5.01557C27.0654 4.95449 26.4091 5.15704 25.8991 5.57885L10.8985 18.0794C10.6172 18.3144 10.391 18.6083 10.2357 18.9403C10.0805 19.2723 10 19.6344 10 20.0009C10 20.3674 10.0805 20.7295 10.2357 21.0615C10.391 21.3935 10.6172 21.6874 10.8985 21.9224L25.8991 34.4229C26.4088 34.8468 27.066 35.0509 27.7261 34.9906C28.3863 34.9303 28.9955 34.6104 29.4199 34.1012C29.8444 33.5919 30.0493 32.9351 29.9898 32.2749C29.9303 31.6146 29.6111 31.005 29.1024 30.58L16.4065 20.0009Z" fill="white"/>
</svg>
