<svg width="74" height="91" viewBox="0 0 74 91" fill="none" xmlns="http://www.w3.org/2000/svg">
<path d="M6 5C6 2.23858 8.23858 0 11 0H62C64.7614 0 67 2.23858 67 5V85H6V5Z" fill="#0085FF"/>
<path d="M23.2 41.8442V22H8.86245L8.86245 41.8442H23.2Z" fill="#E5E3E2" stroke="#2C3E50" stroke-width="3" stroke-miterlimit="10" stroke-linecap="round" stroke-linejoin="round"/>
<path d="M64.2 41.8442V22H49.8625V41.8442H64.2Z" fill="#E5E3E2" stroke="#2C3E50" stroke-width="3" stroke-miterlimit="10" stroke-linecap="round" stroke-linejoin="round"/>
<path d="M44.2 41.8442V22H29.8625V41.8442H44.2Z" fill="#F8B41E" stroke="#2C3E50" stroke-width="3" stroke-miterlimit="10" stroke-linecap="round" stroke-linejoin="round"/>
<path d="M15.814 14V19.3621" stroke="#2C3E50" stroke-miterlimit="10" stroke-linecap="round" stroke-linejoin="round"/>
<path d="M17.3025 18.9774L15.8283 20.2059L14.2673 18.9774" stroke="#2C3E50" stroke-miterlimit="10" stroke-linecap="round" stroke-linejoin="round"/>
<path d="M36.7739 14V19.3621" stroke="#2C3E50" stroke-miterlimit="10" stroke-linecap="round" stroke-linejoin="round"/>
<path d="M38.2625 18.9774L36.7882 20.2059L35.2273 18.9774" stroke="#2C3E50" stroke-miterlimit="10" stroke-linecap="round" stroke-linejoin="round"/>
<path d="M36.814 48V53.3621" stroke="#2C3E50" stroke-miterlimit="10" stroke-linecap="round" stroke-linejoin="round"/>
<path d="M38.3025 52.9774L36.8283 54.2059L35.2673 52.9774" stroke="#2C3E50" stroke-miterlimit="10" stroke-linecap="round" stroke-linejoin="round"/>
<path d="M36.7739 43V48.3621" stroke="#2C3E50" stroke-miterlimit="10" stroke-linecap="round" stroke-linejoin="round"/>
<path d="M15.8617 48.5001L56.8633 48.5001" stroke="#2C3E50" stroke-miterlimit="10" stroke-linecap="round" stroke-linejoin="round"/>
<path d="M15.7609 13.8001L56.7625 13.8001" stroke="#2C3E50" stroke-miterlimit="10" stroke-linecap="round" stroke-linejoin="round"/>
<path d="M15.8623 43V48.3621" stroke="#2C3E50" stroke-miterlimit="10" stroke-linecap="round" stroke-linejoin="round"/>
<path d="M56.8623 43V48.3621" stroke="#2C3E50" stroke-miterlimit="10" stroke-linecap="round" stroke-linejoin="round"/>
<path d="M56.6938 14V19.3621" stroke="#2C3E50" stroke-miterlimit="10" stroke-linecap="round" stroke-linejoin="round"/>
<path d="M58.1824 18.9774L56.7082 20.2059L55.1472 18.9774" stroke="#2C3E50" stroke-miterlimit="10" stroke-linecap="round" stroke-linejoin="round"/>
<rect x="6" y="79" width="61" height="12" rx="5" fill="#3A3A3A"/>
</svg>
