<svg width="45" height="36" viewBox="0 0 45 36" fill="none" xmlns="http://www.w3.org/2000/svg">
<path d="M16.5 17.5C16.5 14.3833 18.8833 12 22 12C25.1167 12 27.5 14.3833 27.5 17.5C27.5 20.6167 25.1167 23 22 23C18.8833 23 16.5 20.6167 16.5 17.5ZM22 26.6667C13.5667 26.6667 11 32.7167 11 32.7167V35.8333H33V32.7167C33 32.7167 30.4333 26.6667 22 26.6667Z" fill="white"/>
<path d="M33.9167 21.1667C36.448 21.1667 38.5 19.1146 38.5 16.5833C38.5 14.052 36.448 12 33.9167 12C31.3854 12 29.3334 14.052 29.3334 16.5833C29.3334 19.1146 31.3854 21.1667 33.9167 21.1667Z" fill="white"/>
<path d="M33.9167 24.8334C31.7167 24.8334 30.0667 25.3834 28.7833 26.3C33 28.3167 34.65 31.8 34.65 32.1667V32.35H42.1667V29.9667C42.1667 29.7834 40.15 24.8334 33.9167 24.8334Z" fill="white"/>
<path d="M33.9167 21.1667C36.448 21.1667 38.5 19.1146 38.5 16.5833C38.5 14.052 36.448 12 33.9167 12C31.3854 12 29.3334 14.052 29.3334 16.5833C29.3334 19.1146 31.3854 21.1667 33.9167 21.1667Z" fill="white"/>
<path d="M33.9167 24.8334C31.7167 24.8334 30.0667 25.3834 28.7833 26.3C33 28.3167 34.65 31.8 34.65 32.1667V32.35H42.1667V29.9667C42.1667 29.7834 40.15 24.8334 33.9167 24.8334Z" fill="white"/>
<path d="M10.0833 21.1667C12.6146 21.1667 14.6667 19.1146 14.6667 16.5833C14.6667 14.052 12.6146 12 10.0833 12C7.55203 12 5.5 14.052 5.5 16.5833C5.5 19.1146 7.55203 21.1667 10.0833 21.1667Z" fill="white"/>
<path d="M10.0834 24.8334C12.2834 24.8334 13.9334 25.3834 15.2167 26.3C11 28.3167 9.35004 31.8 9.35004 32.1667V32.35H1.83337V29.9667C1.83337 29.7834 3.85004 24.8334 10.0834 24.8334Z" fill="white"/>
</svg>
