<svg width="45" height="37" viewBox="0 0 45 37" fill="none" xmlns="http://www.w3.org/2000/svg">
<path d="M27.7092 3.98176H25.5287C25.2786 3.98174 25.035 3.90258 24.8327 3.75561C24.6304 3.60864 24.4798 3.40142 24.4024 3.16361L23.7286 1.08967C23.6514 0.85185 23.5008 0.644602 23.2985 0.497624C23.0962 0.350646 22.8526 0.271484 22.6025 0.271484C22.3525 0.271484 22.1088 0.350646 21.9065 0.497624C21.7042 0.644602 21.5537 0.85185 21.4764 1.08967L20.8026 3.16361C20.7252 3.40142 20.5747 3.60865 20.3724 3.75562C20.17 3.90258 19.9264 3.98175 19.6764 3.98176H17.4958C17.2458 3.98184 17.0022 4.06104 16.8 4.20801C16.5978 4.35499 16.4472 4.5622 16.37 4.79997C16.2927 5.03773 16.2927 5.29384 16.3699 5.53162C16.4471 5.7694 16.5976 5.97664 16.7998 6.12365L18.564 7.40529C18.7663 7.55228 18.9168 7.75953 18.9941 7.99733C19.0714 8.23513 19.0714 8.49129 18.9941 8.72909L18.3203 10.803C18.243 11.0408 18.243 11.297 18.3203 11.5348C18.3975 11.7726 18.5481 11.9798 18.7504 12.1268C18.9527 12.2738 19.1963 12.353 19.4464 12.353C19.6964 12.353 19.9401 12.2739 20.1424 12.1269L21.9064 10.8451C22.1088 10.6982 22.3524 10.619 22.6025 10.619C22.8525 10.619 23.0962 10.6982 23.2985 10.8451L25.0626 12.1269C25.2649 12.2739 25.5086 12.353 25.7586 12.353C26.0087 12.353 26.2523 12.2738 26.4546 12.1268C26.6569 11.9798 26.8074 11.7726 26.8847 11.5348C26.962 11.297 26.9619 11.0408 26.8847 10.803L26.2112 8.72934C26.1339 8.49153 26.1339 8.23538 26.2112 7.99757C26.2885 7.75977 26.439 7.55253 26.6413 7.40553L28.4049 6.12365C28.6071 5.97665 28.7576 5.76943 28.8348 5.53168C28.912 5.29393 28.912 5.03783 28.8348 4.80008C28.7576 4.56233 28.6071 4.35512 28.4049 4.20812C28.2027 4.06113 27.9592 3.98189 27.7092 3.98176Z" fill="white"/>
<path d="M19.4166 15.5361H25.4902C25.6887 15.5361 25.8852 15.5752 26.0686 15.6512C26.2519 15.7271 26.4185 15.8384 26.5588 15.9788C26.6992 16.1191 26.8105 16.2857 26.8864 16.4691C26.9624 16.6524 27.0015 16.8489 27.0015 17.0474V34.5469C27.0015 34.9477 26.8423 35.332 26.5589 35.6153C26.2756 35.8987 25.8913 36.0579 25.4905 36.0579H19.4173C19.0164 36.0579 18.6321 35.8987 18.3486 35.6152C18.0652 35.3318 17.906 34.9474 17.906 34.5466V17.0471C17.906 16.6464 18.0651 16.2622 18.3484 15.9788C18.6317 15.6955 19.0159 15.5362 19.4166 15.5361Z" fill="white"/>
<path d="M7.01796 20.8427H13.0913C13.2897 20.8426 13.4863 20.8817 13.6696 20.9576C13.853 21.0335 14.0196 21.1448 14.1599 21.2851C14.3002 21.4254 14.4116 21.592 14.4875 21.7753C14.5635 21.9586 14.6026 22.1552 14.6026 22.3536V34.5472C14.6026 34.948 14.4433 35.3324 14.1599 35.6158C13.8765 35.8992 13.4921 36.0584 13.0913 36.0584H7.01857C6.61777 36.0584 6.23337 35.8992 5.94996 35.6158C5.66654 35.3324 5.50732 34.948 5.50732 34.5472V22.3536C5.50732 21.9529 5.66647 21.5687 5.94976 21.2853C6.23305 21.002 6.61729 20.8427 7.01796 20.8427Z" fill="white"/>
<path d="M31.8161 20.8427H37.8896C38.2904 20.8427 38.6748 21.0019 38.9582 21.2853C39.2416 21.5687 39.4008 21.9531 39.4008 22.3539V34.547C39.4008 34.9478 39.2416 35.3322 38.9582 35.6156C38.6748 35.899 38.2904 36.0583 37.8896 36.0583H31.8167C31.4159 36.0583 31.0315 35.899 30.7481 35.6156C30.4646 35.3322 30.3054 34.9478 30.3054 34.547V22.3534C30.3055 21.9528 30.4646 21.5685 30.7479 21.2852C31.0312 21.0019 31.4154 20.8427 31.8161 20.8427Z" fill="white"/>
</svg>
