<svg width="45" height="36" viewBox="0 0 45 36" fill="none" xmlns="http://www.w3.org/2000/svg">
<path d="M30.378 25.17C29.7215 25.1697 29.0716 25.3162 28.4678 25.6006C27.864 25.8849 27.3188 26.3013 26.865 26.8245L15.5916 19.8311C15.8099 18.927 15.8099 17.9756 15.5916 17.0714L26.865 10.078C27.6859 11.0164 28.789 11.5926 29.9675 11.6987C31.1461 11.8047 32.3193 11.4333 33.2674 10.6541C34.2154 9.87488 34.8733 8.74127 35.1177 7.46566C35.3621 6.19004 35.1763 4.85994 34.595 3.72453C34.0138 2.58912 33.0771 1.72632 31.9603 1.29775C30.8435 0.869191 29.6233 0.904272 28.5283 1.39643C27.4333 1.88858 26.5386 2.80404 26.0119 3.9713C25.4851 5.13856 25.3624 6.47754 25.6668 7.73738L14.3934 14.7308C13.72 13.9566 12.8519 13.4223 11.9008 13.1966C10.9498 12.9709 9.95918 13.0641 9.05655 13.4642C8.15391 13.8643 7.38049 14.553 6.83578 15.4418C6.29108 16.3305 6 17.3786 6 18.4513C6 19.5239 6.29108 20.572 6.83578 21.4607C7.38049 22.3495 8.15391 23.0382 9.05655 23.4383C9.95918 23.8384 10.9498 23.9316 11.9008 23.7059C12.8519 23.4802 13.72 22.9459 14.3934 22.1718L25.6668 29.1651C25.4054 30.2501 25.4587 31.3981 25.8192 32.448C26.1797 33.4978 26.8292 34.3969 27.6767 35.0191C28.5242 35.6412 29.5271 35.9552 30.5447 35.9169C31.5623 35.8786 32.5434 35.49 33.3505 34.8056C34.1576 34.1212 34.75 33.1754 35.0447 32.1008C35.3395 31.0263 35.3216 29.877 34.9938 28.8142C34.6659 27.7514 34.0445 26.8285 33.2167 26.1749C32.3888 25.5213 31.3962 25.1699 30.378 25.17Z" fill="white"/>
</svg>
