<svg width="107" height="220" viewBox="0 0 107 220" fill="none" xmlns="http://www.w3.org/2000/svg">
<path d="M31 5C31 2.23857 33.2386 0 36 0H107V220H36C33.2386 220 31 217.761 31 215V5Z" fill="#0085FF"/>
<path d="M0 110C0 97.2975 10.2975 87 23 87H32V133H23C10.2975 133 0 122.703 0 110V110Z" fill="#0085FF"/>
<rect x="38" y="4" width="66" height="12" rx="5" fill="#0043A8"/>
<path d="M46.5213 13V7.18182H50.3821V8.19602H47.7514V9.33239H48.6974C49.1577 9.33239 49.5545 9.4072 49.8878 9.55682C50.223 9.70455 50.4815 9.91383 50.6634 10.1847C50.8452 10.4555 50.9361 10.7746 50.9361 11.142C50.9361 11.5076 50.8452 11.8305 50.6634 12.1108C50.4815 12.3892 50.223 12.607 49.8878 12.7642C49.5545 12.9214 49.1577 13 48.6974 13H46.5213ZM47.7514 12.0114H48.6974C48.9171 12.0114 49.1027 11.9716 49.2543 11.892C49.4058 11.8106 49.5204 11.7036 49.598 11.571C49.6776 11.4366 49.7173 11.2898 49.7173 11.1307C49.7173 10.8996 49.6293 10.7045 49.4531 10.5455C49.2789 10.3845 49.027 10.304 48.6974 10.304H47.7514V12.0114ZM51.4538 13L51.4482 12.0398H51.593C51.6953 12.0398 51.7834 12.0152 51.8572 11.9659C51.933 11.9148 51.9955 11.8324 52.0447 11.7188C52.094 11.6051 52.1328 11.4545 52.1612 11.267C52.1896 11.0777 52.2086 10.8447 52.218 10.5682L52.2891 8.63636H55.6072V13H54.4538V9.58807H53.3771L53.3089 10.9205C53.2919 11.286 53.2474 11.6004 53.1754 11.8636C53.1054 12.1269 53.0078 12.3428 52.8828 12.5114C52.7578 12.678 52.6072 12.8011 52.4311 12.8807C52.255 12.9602 52.0504 13 51.8175 13H51.4538ZM58.517 13.0852C58.0758 13.0852 57.6941 12.9915 57.3722 12.804C57.0521 12.6146 56.8049 12.3513 56.6307 12.0142C56.4564 11.6752 56.3693 11.2822 56.3693 10.8352C56.3693 10.3845 56.4564 9.99053 56.6307 9.65341C56.8049 9.31439 57.0521 9.05114 57.3722 8.86364C57.6941 8.67424 58.0758 8.57955 58.517 8.57955C58.9583 8.57955 59.339 8.67424 59.6591 8.86364C59.9811 9.05114 60.2292 9.31439 60.4034 9.65341C60.5777 9.99053 60.6648 10.3845 60.6648 10.8352C60.6648 11.2822 60.5777 11.6752 60.4034 12.0142C60.2292 12.3513 59.9811 12.6146 59.6591 12.804C59.339 12.9915 58.9583 13.0852 58.517 13.0852ZM58.5227 12.1477C58.7235 12.1477 58.8911 12.0909 59.0256 11.9773C59.16 11.8617 59.2614 11.7045 59.3295 11.5057C59.3996 11.3068 59.4347 11.0805 59.4347 10.8267C59.4347 10.5729 59.3996 10.3466 59.3295 10.1477C59.2614 9.94886 59.16 9.79167 59.0256 9.67614C58.8911 9.56061 58.7235 9.50284 58.5227 9.50284C58.3201 9.50284 58.1496 9.56061 58.0114 9.67614C57.875 9.79167 57.7718 9.94886 57.7017 10.1477C57.6335 10.3466 57.5994 10.5729 57.5994 10.8267C57.5994 11.0805 57.6335 11.3068 57.7017 11.5057C57.7718 11.7045 57.875 11.8617 58.0114 11.9773C58.1496 12.0909 58.3201 12.1477 58.5227 12.1477ZM61.4517 13V8.63636H62.6619V10.3295H63.0028L64.1903 8.63636H65.6108L64.0682 10.8011L65.6278 13H64.1903L63.1136 11.4517H62.6619V13H61.4517ZM67.2955 11.4034L68.8665 8.63636H70.0597V13H68.9062V10.2244L67.3409 13H66.1392V8.63636H67.2955V11.4034ZM72.657 11.7642H73.8303C73.8359 11.9081 73.9003 12.0218 74.0234 12.1051C74.1465 12.1884 74.3056 12.2301 74.5007 12.2301C74.6977 12.2301 74.8634 12.1847 74.9979 12.0938C75.1323 12.0009 75.1996 11.8684 75.1996 11.696C75.1996 11.59 75.1731 11.4981 75.12 11.4205C75.067 11.3409 74.9931 11.2784 74.8984 11.233C74.8037 11.1875 74.6939 11.1648 74.5689 11.1648H73.9411V10.3722H74.5689C74.7564 10.3722 74.9003 10.3286 75.0007 10.2415C75.103 10.1544 75.1541 10.0455 75.1541 9.91477C75.1541 9.76705 75.1011 9.64867 74.995 9.55966C74.8909 9.46875 74.7498 9.4233 74.5717 9.4233C74.3918 9.4233 74.2422 9.46402 74.1229 9.54545C74.0054 9.625 73.9448 9.72917 73.9411 9.85795H72.7734C72.7772 9.59659 72.8558 9.37027 73.0092 9.17898C73.1645 8.98769 73.3729 8.83996 73.6342 8.7358C73.8975 8.63163 74.192 8.57955 74.5178 8.57955C74.8738 8.57955 75.1806 8.62973 75.4382 8.73011C75.6977 8.8286 75.8965 8.9697 76.0348 9.15341C76.175 9.33712 76.245 9.55587 76.245 9.80966C76.245 10.0407 76.1693 10.2339 76.0178 10.3892C75.8662 10.5445 75.6541 10.6553 75.3814 10.7216V10.767C75.5613 10.7784 75.7242 10.8267 75.87 10.9119C76.0159 10.9972 76.1323 11.1146 76.2195 11.2642C76.3066 11.4119 76.3501 11.5871 76.3501 11.7898C76.3501 12.0606 76.2706 12.2926 76.1115 12.4858C75.9543 12.679 75.7365 12.8277 75.4581 12.9318C75.1816 13.0341 74.8643 13.0852 74.5064 13.0852C74.1579 13.0852 73.8454 13.035 73.5689 12.9347C73.2943 12.8324 73.0755 12.6828 72.9126 12.4858C72.7517 12.2888 72.6664 12.0483 72.657 11.7642ZM78.3366 13.0824C78.0582 13.0824 77.8101 13.0341 77.5923 12.9375C77.3745 12.839 77.2022 12.6941 77.0753 12.5028C76.9503 12.3097 76.8878 12.0691 76.8878 11.7812C76.8878 11.5388 76.9323 11.3352 77.0213 11.1705C77.1103 11.0057 77.2315 10.8731 77.3849 10.7727C77.5384 10.6723 77.7126 10.5966 77.9077 10.5455C78.1046 10.4943 78.3111 10.4583 78.527 10.4375C78.7808 10.411 78.9853 10.3864 79.1406 10.3636C79.2959 10.339 79.4086 10.303 79.4787 10.2557C79.5488 10.2083 79.5838 10.1383 79.5838 10.0455V10.0284C79.5838 9.84848 79.527 9.70928 79.4134 9.6108C79.3016 9.51231 79.1425 9.46307 78.9361 9.46307C78.7183 9.46307 78.545 9.51136 78.4162 9.60795C78.2874 9.70265 78.2022 9.82197 78.1605 9.96591L77.0412 9.875C77.098 9.60985 77.2098 9.38068 77.3764 9.1875C77.5431 8.99242 77.758 8.8428 78.0213 8.73864C78.2865 8.63258 78.5933 8.57955 78.9418 8.57955C79.1842 8.57955 79.4162 8.60795 79.6378 8.66477C79.8613 8.72159 80.0592 8.80966 80.2315 8.92898C80.4058 9.0483 80.5431 9.2017 80.6435 9.3892C80.7438 9.57481 80.794 9.79735 80.794 10.0568V13H79.6463V12.3949H79.6122C79.5421 12.5312 79.4484 12.6515 79.331 12.7557C79.2135 12.858 79.0724 12.9384 78.9077 12.9972C78.7429 13.054 78.5526 13.0824 78.3366 13.0824ZM78.6832 12.2472C78.8613 12.2472 79.0185 12.2121 79.1548 12.142C79.2912 12.0701 79.3982 11.9735 79.4759 11.8523C79.5535 11.7311 79.5923 11.5937 79.5923 11.4403V10.9773C79.5545 11.0019 79.5024 11.0246 79.4361 11.0455C79.3717 11.0644 79.2988 11.0824 79.2173 11.0994C79.1359 11.1146 79.0545 11.1288 78.973 11.142C78.8916 11.1534 78.8177 11.1638 78.7514 11.1733C78.6094 11.1941 78.4853 11.2273 78.3793 11.2727C78.2732 11.3182 78.1908 11.3797 78.1321 11.4574C78.0734 11.5331 78.044 11.6278 78.044 11.7415C78.044 11.9062 78.1037 12.0322 78.223 12.1193C78.3442 12.2045 78.4976 12.2472 78.6832 12.2472ZM81.392 14.2784V12.0398H81.7273C81.8239 11.9792 81.9015 11.8826 81.9602 11.75C82.0208 11.6174 82.0701 11.4612 82.108 11.2812C82.1477 11.1013 82.178 10.9072 82.1989 10.6989C82.2216 10.4886 82.2415 10.2765 82.2585 10.0625L82.3722 8.63636H85.7188V12.0398H86.3949V14.2784H85.2415V13H82.5739V14.2784H81.392ZM82.9318 12.0398H84.5767V9.56818H83.4006L83.3551 10.0625C83.3229 10.5284 83.2765 10.9242 83.2159 11.25C83.1553 11.5739 83.0606 11.8371 82.9318 12.0398ZM88.3445 13.0824C88.0661 13.0824 87.8179 13.0341 87.6001 12.9375C87.3823 12.839 87.21 12.6941 87.0831 12.5028C86.9581 12.3097 86.8956 12.0691 86.8956 11.7812C86.8956 11.5388 86.9401 11.3352 87.0291 11.1705C87.1181 11.0057 87.2393 10.8731 87.3928 10.7727C87.5462 10.6723 87.7204 10.5966 87.9155 10.5455C88.1125 10.4943 88.3189 10.4583 88.5348 10.4375C88.7886 10.411 88.9931 10.3864 89.1484 10.3636C89.3037 10.339 89.4164 10.303 89.4865 10.2557C89.5566 10.2083 89.5916 10.1383 89.5916 10.0455V10.0284C89.5916 9.84848 89.5348 9.70928 89.4212 9.6108C89.3094 9.51231 89.1503 9.46307 88.9439 9.46307C88.7261 9.46307 88.5528 9.51136 88.424 9.60795C88.2952 9.70265 88.21 9.82197 88.1683 9.96591L87.049 9.875C87.1058 9.60985 87.2176 9.38068 87.3842 9.1875C87.5509 8.99242 87.7659 8.8428 88.0291 8.73864C88.2943 8.63258 88.6011 8.57955 88.9496 8.57955C89.192 8.57955 89.424 8.60795 89.6456 8.66477C89.8691 8.72159 90.067 8.80966 90.2393 8.92898C90.4136 9.0483 90.5509 9.2017 90.6513 9.3892C90.7517 9.57481 90.8018 9.79735 90.8018 10.0568V13H89.6541V12.3949H89.62C89.55 12.5312 89.4562 12.6515 89.3388 12.7557C89.2214 12.858 89.0803 12.9384 88.9155 12.9972C88.7507 13.054 88.5604 13.0824 88.3445 13.0824ZM88.6911 12.2472C88.8691 12.2472 89.0263 12.2121 89.1626 12.142C89.299 12.0701 89.406 11.9735 89.4837 11.8523C89.5613 11.7311 89.6001 11.5937 89.6001 11.4403V10.9773C89.5623 11.0019 89.5102 11.0246 89.4439 11.0455C89.3795 11.0644 89.3066 11.0824 89.2251 11.0994C89.1437 11.1146 89.0623 11.1288 88.9808 11.142C88.8994 11.1534 88.8255 11.1638 88.7592 11.1733C88.6172 11.1941 88.4931 11.2273 88.3871 11.2727C88.281 11.3182 88.1986 11.3797 88.1399 11.4574C88.0812 11.5331 88.0518 11.6278 88.0518 11.7415C88.0518 11.9062 88.1115 12.0322 88.2308 12.1193C88.352 12.2045 88.5054 12.2472 88.6911 12.2472ZM95.5277 8.63636V13H94.38V8.63636H95.5277ZM94.968 10.5511V11.5057C94.8752 11.5473 94.7597 11.5871 94.6214 11.625C94.4832 11.661 94.3383 11.6903 94.1868 11.7131C94.0353 11.7358 93.8932 11.7472 93.7607 11.7472C93.1338 11.7472 92.6404 11.6184 92.2805 11.3608C91.9207 11.1013 91.7408 10.6875 91.7408 10.1193V8.63068H92.8828V10.1193C92.8828 10.2879 92.9112 10.4214 92.968 10.5199C93.0268 10.6184 93.1196 10.6894 93.2464 10.733C93.3752 10.7746 93.5466 10.7955 93.7607 10.7955C93.9595 10.7955 94.1546 10.7746 94.3459 10.733C94.5372 10.6913 94.7446 10.6307 94.968 10.5511Z" fill="white"/>
</svg>
