<svg width="157" height="157" viewBox="0 0 157 157" fill="none" xmlns="http://www.w3.org/2000/svg">
<path d="M147.188 142.563V52.6213L148.476 52.0718C150.138 51.3587 150.91 49.4355 150.197 47.7805C149.49 46.1123 147.547 45.3404 145.906 46.06L144.807 46.531L110.391 7.64733C110.378 7.6277 110.352 7.6277 110.338 7.60808C110.038 7.28099 109.671 6.9997 109.233 6.80999H109.22C109.109 6.7642 108.984 6.77074 108.867 6.73804C108.52 6.63337 108.173 6.56141 107.826 6.57449C107.787 6.57449 107.755 6.55487 107.715 6.55487L17.6234 12.9919L12.135 7.50341C10.8593 6.22779 8.78563 6.22779 7.51001 7.50341C6.23438 8.77904 6.23438 10.8527 7.51001 12.1284L13.0966 17.715V102.986L8.53705 104.942C6.87546 105.655 6.10355 107.578 6.81659 109.233C7.34647 110.476 8.55667 111.215 9.81922 111.215C10.251 111.215 10.6893 111.13 11.1079 110.947L15.7525 108.958L49.2655 138.441L46.0666 145.905C45.3535 147.561 46.1255 149.484 47.787 150.197C48.2057 150.38 48.644 150.465 49.0758 150.465C50.3448 150.465 51.5485 149.726 52.0784 148.483L55.6174 140.234L123.206 127.831L141.614 146.239L141.621 146.246L144.885 149.51C145.506 150.138 146.35 150.458 147.188 150.458C148.025 150.458 148.862 150.138 149.503 149.503C150.779 148.228 150.779 146.154 149.503 144.878L147.188 142.563ZM140.646 136.021L127.635 123.01L131.18 59.477L140.646 55.4211V136.021ZM108.049 103.424L110.986 68.1316L124.468 62.3553L121.427 116.808L108.049 103.424ZM89.9219 60.1442L100.297 65.6L84.7278 72.2725L89.9219 60.1442ZM108.042 62.2833L92.5124 54.1128L99.4204 37.9941L121.806 56.3827L108.042 62.2833ZM77.3946 72.7696L49.272 44.647L92.7348 36.9802L77.3946 72.7696ZM72.7631 77.3946L40.7809 91.0994L45.0592 49.6841L72.7631 77.3946ZM72.2725 84.7278L61.747 109.298L43.7247 96.9672L72.2725 84.7278ZM79.5992 84.2306L98.1775 102.809L68.7269 109.606L79.5992 84.2306ZM84.2307 79.6057L104.189 71.0557L101.998 97.3728L84.2307 79.6057ZM128.564 53.4848L102.089 31.7403L108.899 15.844L138.455 49.2392L128.564 53.4848ZM102.822 13.4563L95.8225 29.7974L43.6396 39.0081L23.7399 19.1083L102.822 13.4563ZM19.6252 24.2501L39.1063 43.7312L33.9056 94.0562L19.6252 100.173V24.2501ZM22.3988 106.099L36.5943 100.016L59.1172 115.421L51.9672 132.109L22.3988 106.099ZM58.692 133.005L65.528 117.057L103.633 108.265L117.567 122.198L58.692 133.005Z" fill="#303C42"/>
<path d="M147.188 142.563V52.6212L148.476 52.0717C150.138 51.3586 150.91 49.4354 150.197 47.7803C149.49 46.1122 147.547 45.3403 145.905 46.0599L144.806 46.5309L110.391 7.64722C110.378 7.62759 110.351 7.62759 110.338 7.60797C110.037 7.28088 109.671 6.99959 109.233 6.80988H109.22C109.102 6.75755 108.978 6.77063 108.86 6.73138C108.513 6.62672 108.166 6.55476 107.82 6.56784C107.781 6.56784 107.748 6.54822 107.709 6.54822L17.6167 12.9852L12.1283 7.49676C10.8526 6.22113 8.77893 6.22113 7.5033 7.49676C6.22768 8.77238 6.22768 10.8461 7.5033 12.1217L13.0833 17.7083V102.979L8.5238 104.935C6.86222 105.648 6.0903 107.571 6.80335 109.226C7.33322 110.469 8.54343 111.208 9.80597 111.208C10.2377 111.208 10.676 111.123 11.0947 110.94L15.7393 108.951L49.2522 138.435L46.0533 145.899C45.3403 147.554 46.1122 149.477 47.7738 150.19C48.1925 150.373 48.6373 150.458 49.0691 150.458C50.3381 150.458 51.5418 149.719 52.0717 148.476L55.6042 140.227L123.193 127.824L141.601 146.232L141.607 146.239L144.872 149.503C145.506 150.138 146.35 150.458 147.188 150.458C148.025 150.458 148.862 150.138 149.503 149.503C150.779 148.228 150.779 146.154 149.503 144.878L147.188 142.563ZM140.646 136.021L127.634 123.01L131.18 59.4768L140.646 55.421V136.021ZM108.049 103.424L110.986 68.1315L124.468 62.3552L121.426 116.808L108.049 103.424ZM89.9218 60.1441L100.297 65.5998L84.7277 72.2723L89.9218 60.1441ZM108.042 62.2832L92.5123 54.1127L99.4203 37.994L121.806 56.3826L108.042 62.2832ZM77.3945 72.7695L49.2718 44.6469L92.7347 36.98L77.3945 72.7695ZM72.763 77.3945L40.7808 91.0993L45.059 49.684L72.763 77.3945ZM72.2723 84.7277L61.7468 109.298L43.7245 96.9671L72.2723 84.7277ZM79.599 84.2305L98.1773 102.809L68.7268 109.606L79.599 84.2305ZM84.2305 79.6056L104.189 71.0556L101.998 97.3727L84.2305 79.6056ZM128.563 53.4847L102.089 31.7402L108.899 15.8439L138.454 49.2391L128.563 53.4847ZM102.822 13.4562L95.8223 29.7973L43.6395 39.008L23.7397 19.1082L102.822 13.4562ZM19.625 24.25L39.1061 43.731L33.9055 94.0561L19.625 100.173V24.25ZM22.3987 106.099L36.5941 100.016L59.117 115.421L51.967 132.109L22.3987 106.099ZM58.6918 133.005L65.5279 117.057L103.633 108.265L117.567 122.198L58.6918 133.005Z" fill="url(#paint0_linear_9_305)"/>
<defs>
<linearGradient id="paint0_linear_9_305" x1="-7.19059" y1="38.5402" x2="164.197" y2="118.46" gradientUnits="userSpaceOnUse">
<stop stop-color="white" stop-opacity="0.2"/>
<stop offset="1" stop-color="white" stop-opacity="0"/>
</linearGradient>
</defs>
</svg>
