<svg width="33" height="23" viewBox="0 0 33 23" fill="none" xmlns="http://www.w3.org/2000/svg">
<path d="M12.5881 0.87191C12.294 0.710077 11.962 0.645728 11.6651 0.69302C11.3682 0.740311 11.1306 0.895369 11.0048 1.12408L1.03812 19.2337C0.91225 19.4624 0.908344 19.7461 1.02727 20.0222C1.14619 20.2984 1.3782 20.5444 1.67225 20.7063C1.9663 20.8681 2.29832 20.9324 2.59525 20.8852C2.89218 20.8379 3.12971 20.6828 3.25558 20.4541L13.2222 2.34446C13.3481 2.11575 13.352 1.83212 13.2331 1.55596C13.1142 1.2798 12.8822 1.03374 12.5881 0.87191Z" fill="white"/>
<path d="M29.2726 17.2114C27.8745 12.7567 24.7155 11.2654 21.9256 9.9434C19.2711 8.69034 17.1733 7.69873 16.1257 4.35263C16.0569 4.1348 15.9156 3.92694 15.7212 3.75763C15.5267 3.58833 15.2887 3.46591 15.0399 3.4072C14.7911 3.34849 14.5437 3.35638 14.3318 3.42979C14.1198 3.5032 13.9537 3.63852 13.8564 3.81714L9.82224 11.1472C9.7412 11.2936 9.70949 11.464 9.73008 11.6424C9.75067 11.8209 9.82289 12.0014 9.93993 12.167C10.5261 13.0218 11.3507 13.7603 12.3154 14.2946C14.5329 15.5149 17.2612 15.5446 19.7551 15.5801C23.4423 15.6263 25.7716 15.7903 27.1209 17.6957C27.2785 17.9405 27.5236 18.1439 27.8092 18.2669C28.0948 18.39 28.4008 18.4239 28.6684 18.3623C28.936 18.3006 29.1464 18.1478 29.2592 17.933C29.372 17.7182 29.3793 17.4566 29.2797 17.1985L29.2726 17.2114ZM19.2878 13.4634C15.9625 13.4029 13.7028 13.2829 12.3292 11.8416L14.968 7.04683C16.5733 9.61567 18.9839 10.7345 21.1562 11.7614C22.6117 12.4501 23.9018 13.059 24.9632 14.0308C23.1324 13.512 21.146 13.4861 19.2878 13.4634Z" fill="white"/>
</svg>
