<svg width="246" height="145" viewBox="0 0 246 145" fill="none" xmlns="http://www.w3.org/2000/svg">
<path d="M127 63.5C127 98.5701 98.5701 127 63.5 127C28.4299 127 0 98.5701 0 63.5C0 28.4299 28.4299 0 63.5 0C98.5701 0 127 28.4299 127 63.5ZM12.5823 63.5C12.5823 91.621 35.379 114.418 63.5 114.418C91.621 114.418 114.418 91.621 114.418 63.5C114.418 35.379 91.621 12.5823 63.5 12.5823C35.379 12.5823 12.5823 35.379 12.5823 63.5Z" fill="#D9D9D9"/>
<path d="M43.8232 47.2969H51.1455V68.7695C51.1455 71.3151 50.6064 73.4564 49.5283 75.1934C48.4652 76.9303 46.9827 78.2406 45.0811 79.124C43.1794 80.0075 40.9782 80.4492 38.4775 80.4492C35.9619 80.4492 33.7458 80.0075 31.8291 79.124C29.9274 78.2406 28.43 76.9303 27.3369 75.1934C26.2588 73.4564 25.7197 71.3151 25.7197 68.7695V47.2969H33.0645V68.7695C33.0645 70.1771 33.2741 71.3301 33.6934 72.2285C34.1276 73.112 34.749 73.7633 35.5576 74.1826C36.3662 74.5869 37.3395 74.7891 38.4775 74.7891C39.6156 74.7891 40.5814 74.5869 41.375 74.1826C42.1836 73.7633 42.79 73.112 43.1943 72.2285C43.6136 71.3301 43.8232 70.1771 43.8232 68.7695V47.2969ZM83.3545 47.2969V80H76.0547L63.7012 58.8643V80H56.3789V47.2969H63.7012L76.0771 68.4326V47.2969H83.3545ZM96.5615 47.2969V80H89.2617V47.2969H96.5615Z" fill="white"/>
<path d="M152.771 47.2969H160.093V68.7695C160.093 71.3151 159.554 73.4564 158.476 75.1934C157.412 76.9303 155.93 78.2406 154.028 79.124C152.127 80.0075 149.925 80.4492 147.425 80.4492C144.909 80.4492 142.693 80.0075 140.776 79.124C138.875 78.2406 137.377 76.9303 136.284 75.1934C135.206 73.4564 134.667 71.3151 134.667 68.7695V47.2969H142.012V68.7695C142.012 70.1771 142.221 71.3301 142.641 72.2285C143.075 73.112 143.696 73.7633 144.505 74.1826C145.313 74.5869 146.287 74.7891 147.425 74.7891C148.563 74.7891 149.529 74.5869 150.322 74.1826C151.131 73.7633 151.737 73.112 152.142 72.2285C152.561 71.3301 152.771 70.1771 152.771 68.7695V47.2969ZM187.562 74.3398V80H170.155V74.3398H187.562ZM172.648 47.2969V80H165.326V47.2969H172.648ZM185.316 60.459V65.9395H170.155V60.459H185.316ZM187.585 47.2969V52.9795H170.155V47.2969H187.585ZM208.114 71.375C208.114 70.821 208.032 70.3268 207.867 69.8926C207.702 69.4434 207.403 69.0316 206.969 68.6572C206.535 68.2829 205.921 67.9085 205.127 67.5342C204.333 67.1449 203.293 66.748 202.005 66.3438C200.537 65.8646 199.137 65.3255 197.805 64.7266C196.487 64.1126 195.312 63.4014 194.278 62.5928C193.245 61.7842 192.429 60.8408 191.83 59.7627C191.246 58.6846 190.954 57.4268 190.954 55.9893C190.954 54.5967 191.261 53.3389 191.875 52.2158C192.489 51.0928 193.35 50.1344 194.458 49.3408C195.566 48.5322 196.869 47.9183 198.366 47.499C199.864 47.0648 201.511 46.8477 203.308 46.8477C205.703 46.8477 207.807 47.2744 209.619 48.1279C211.446 48.9665 212.868 50.1494 213.887 51.6768C214.905 53.1891 215.414 54.9486 215.414 56.9551H208.137C208.137 56.0716 207.95 55.293 207.575 54.6191C207.216 53.9303 206.662 53.3913 205.913 53.002C205.179 52.6126 204.258 52.418 203.15 52.418C202.072 52.418 201.166 52.5827 200.433 52.9121C199.714 53.2266 199.167 53.6608 198.793 54.2148C198.434 54.7689 198.254 55.3753 198.254 56.0342C198.254 56.5583 198.389 57.0374 198.658 57.4717C198.943 57.891 199.347 58.2878 199.871 58.6621C200.41 59.0215 201.069 59.3659 201.848 59.6953C202.626 60.0247 203.517 60.3392 204.521 60.6387C206.272 61.1927 207.822 61.8066 209.17 62.4805C210.533 63.1543 211.678 63.918 212.606 64.7715C213.535 65.625 214.231 66.5908 214.695 67.6689C215.174 68.7471 215.414 69.9674 215.414 71.3301C215.414 72.7826 215.13 74.0703 214.561 75.1934C214.007 76.3164 213.198 77.2747 212.135 78.0684C211.087 78.847 209.829 79.4385 208.361 79.8428C206.894 80.2471 205.254 80.4492 203.442 80.4492C201.795 80.4492 200.171 80.2396 198.568 79.8203C196.966 79.3861 195.514 78.7272 194.211 77.8438C192.923 76.9603 191.89 75.8372 191.111 74.4746C190.348 73.097 189.966 71.4648 189.966 69.5781H197.288C197.288 70.5664 197.43 71.4049 197.715 72.0938C197.999 72.7676 198.404 73.3141 198.928 73.7334C199.467 74.1527 200.118 74.4521 200.882 74.6318C201.646 74.8115 202.499 74.9014 203.442 74.9014C204.535 74.9014 205.419 74.7516 206.093 74.4521C206.782 74.1377 207.291 73.7109 207.62 73.1719C207.95 72.6328 208.114 72.0339 208.114 71.375ZM234.955 47.2969V80H227.655V47.2969H234.955ZM244.905 47.2969V52.9795H217.907V47.2969H244.905Z" fill="white"/>
<rect x="81" y="95.5303" width="14" height="66.3324" transform="rotate(-42.9023 81 95.5303)" fill="#D9D9D9"/>
</svg>
