<svg width="57" height="50" viewBox="0 0 57 50" fill="none" xmlns="http://www.w3.org/2000/svg">
<path d="M28.4999 14.0625C27.4511 14.0787 26.41 14.2431 25.4085 14.5508C25.8718 15.3548 26.1184 16.2626 26.1249 17.1875C26.1249 17.9057 25.9816 18.6168 25.7031 19.2803C25.4246 19.9438 25.0164 20.5467 24.5018 21.0545C23.9872 21.5623 23.3763 21.9651 22.704 22.24C22.0316 22.5148 21.311 22.6562 20.5833 22.6562C19.6461 22.6498 18.7261 22.4064 17.9114 21.9492C17.2686 24.1492 17.3435 26.493 18.1255 28.6487C18.9076 30.8043 20.3571 32.6625 22.2687 33.96C24.1803 35.2575 26.4572 35.9286 28.7768 35.8782C31.0964 35.8277 33.3411 35.0584 35.193 33.679C37.0448 32.2997 38.41 30.3803 39.0951 28.1928C39.7801 26.0052 39.7504 23.6604 39.01 21.4905C38.2696 19.3206 36.8562 17.4355 34.9699 16.1024C33.0836 14.7693 30.8201 14.0556 28.4999 14.0625ZM56.6556 23.5742C51.2891 13.2412 40.6649 6.25 28.4999 6.25C16.335 6.25 5.70786 13.2461 0.344321 23.5752C0.117946 24.0171 0 24.5053 0 25.0005C0 25.4956 0.117946 25.9839 0.344321 26.4258C5.71083 36.7588 16.335 43.75 28.4999 43.75C40.6649 43.75 51.292 36.7539 56.6556 26.4248C56.8819 25.9829 56.9999 25.4947 56.9999 24.9995C56.9999 24.5044 56.8819 24.0161 56.6556 23.5742ZM28.4999 39.0625C18.7377 39.0625 9.78791 33.6914 4.95479 25C9.78791 16.3086 18.7367 10.9375 28.4999 10.9375C38.2632 10.9375 47.212 16.3086 52.0451 25C47.213 33.6914 38.2632 39.0625 28.4999 39.0625Z" fill="white"/>
</svg>
