<svg width="59" height="76" viewBox="0 0 59 76" fill="none" xmlns="http://www.w3.org/2000/svg">
<path d="M16.3375 31.0443V11.2002H2.00003L2.00003 31.0443H16.3375Z" fill="#E5E3E2" stroke="#2C3E50" stroke-width="3" stroke-miterlimit="10" stroke-linecap="round" stroke-linejoin="round"/>
<path d="M57.3375 31.0443V11.2002H43V31.0443H57.3375Z" fill="#E5E3E2" stroke="#2C3E50" stroke-width="3" stroke-miterlimit="10" stroke-linecap="round" stroke-linejoin="round"/>
<path d="M37.3375 31.0443V11.2002H23V31.0443H37.3375Z" fill="#F8B41E" stroke="#2C3E50" stroke-width="3" stroke-miterlimit="10" stroke-linecap="round" stroke-linejoin="round"/>
<path d="M8.95129 3.2002V8.56231" stroke="#2C3E50" stroke-miterlimit="10" stroke-linecap="round" stroke-linejoin="round"/>
<path d="M10.4399 8.17773L8.96572 9.40625L7.40479 8.17773" stroke="#2C3E50" stroke-miterlimit="10" stroke-linecap="round" stroke-linejoin="round"/>
<path d="M29.9114 3.2002V8.56231" stroke="#2C3E50" stroke-miterlimit="10" stroke-linecap="round" stroke-linejoin="round"/>
<path d="M31.4 8.17773L29.9258 9.40625L28.3649 8.17773" stroke="#2C3E50" stroke-miterlimit="10" stroke-linecap="round" stroke-linejoin="round"/>
<path d="M29.9513 37.2002V42.5623" stroke="#2C3E50" stroke-miterlimit="10" stroke-linecap="round" stroke-linejoin="round"/>
<path d="M31.4399 42.1777L29.9657 43.4062L28.4048 42.1777" stroke="#2C3E50" stroke-miterlimit="10" stroke-linecap="round" stroke-linejoin="round"/>
<path d="M29.9114 32.2002V37.5623" stroke="#2C3E50" stroke-miterlimit="10" stroke-linecap="round" stroke-linejoin="round"/>
<path d="M8.99926 37.7002L50.0009 37.7002" stroke="#2C3E50" stroke-miterlimit="10" stroke-linecap="round" stroke-linejoin="round"/>
<path d="M8.89843 3.00004L49.9 3.00005" stroke="#2C3E50" stroke-miterlimit="10" stroke-linecap="round" stroke-linejoin="round"/>
<path d="M9 32.2002V37.5623" stroke="#2C3E50" stroke-miterlimit="10" stroke-linecap="round" stroke-linejoin="round"/>
<path d="M50 32.2002V37.5623" stroke="#2C3E50" stroke-miterlimit="10" stroke-linecap="round" stroke-linejoin="round"/>
<path d="M49.8313 3.2002V8.56231" stroke="#2C3E50" stroke-miterlimit="10" stroke-linecap="round" stroke-linejoin="round"/>
<path d="M51.3199 8.17773L49.8457 9.40625L48.2848 8.17773" stroke="#2C3E50" stroke-miterlimit="10" stroke-linecap="round" stroke-linejoin="round"/>
</svg>
